<svg width="220" height="220" viewBox="-110 -110 220 220" role="img" xmlns="http://www.w3.org/2000/svg">
  <title>PixelShare icon</title>
  <desc>PixelShare icon with symmetric P+S monogram and geometric particle field, transparent background.</desc>

  <defs>
    <linearGradient id="gMain" x1="0%" y1="0%" x2="100%" y2="100%">
      <stop offset="0%" stop-color="#22D3EE"/>
      <stop offset="100%" stop-color="#2563EB"/>
    </linearGradient>
  </defs>

  <rect x="-110" y="-110" width="220" height="220" rx="52" fill="#1E293B"/>

  <circle cx="-90" cy="-90" r="3" fill="#22D3EE" opacity="0.25"/>
  <circle cx="90" cy="-90" r="3" fill="#2563EB" opacity="0.25"/>
  <circle cx="-90" cy="90" r="3" fill="#2563EB" opacity="0.25"/>
  <circle cx="90" cy="90" r="3" fill="#22D3EE" opacity="0.25"/>

  <circle cx="-64" cy="-90" r="2.5" fill="#22D3EE" opacity="0.4"/>
  <circle cx="64" cy="-90" r="2.5" fill="#2563EB" opacity="0.4"/>
  <circle cx="-64" cy="90" r="2.5" fill="#2563EB" opacity="0.4"/>
  <circle cx="64" cy="90" r="2.5" fill="#22D3EE" opacity="0.4"/>

  <circle cx="-90" cy="-64" r="2.5" fill="#22D3EE" opacity="0.4"/>
  <circle cx="90" cy="-64" r="2.5" fill="#2563EB" opacity="0.4"/>
  <circle cx="-90" cy="64" r="2.5" fill="#2563EB" opacity="0.4"/>
  <circle cx="90" cy="64" r="2.5" fill="#22D3EE" opacity="0.4"/>

  <circle cx="-90" cy="0" r="3.5" fill="#22D3EE" opacity="0.55"/>
  <circle cx="90" cy="0" r="3.5" fill="#2563EB" opacity="0.55"/>
  <circle cx="0" cy="-90" r="3.5" fill="#22D3EE" opacity="0.55"/>
  <circle cx="0" cy="90" r="3.5" fill="#2563EB" opacity="0.55"/>

  <circle cx="-78" cy="-38" r="2" fill="#22D3EE" opacity="0.3"/>
  <circle cx="78" cy="-38" r="2" fill="#2563EB" opacity="0.3"/>
  <circle cx="-78" cy="38" r="2" fill="#2563EB" opacity="0.3"/>
  <circle cx="78" cy="38" r="2" fill="#22D3EE" opacity="0.3"/>

  <circle cx="-38" cy="-78" r="2" fill="#22D3EE" opacity="0.3"/>
  <circle cx="38" cy="-78" r="2" fill="#2563EB" opacity="0.3"/>
  <circle cx="-38" cy="78" r="2" fill="#2563EB" opacity="0.3"/>
  <circle cx="38" cy="78" r="2" fill="#22D3EE" opacity="0.3"/>

  <circle cx="-54" cy="-54" r="2.5" fill="#38BDF8" opacity="0.35"/>
  <circle cx="54" cy="-54" r="2.5" fill="#3B82F6" opacity="0.35"/>
  <circle cx="-54" cy="54" r="2.5" fill="#3B82F6" opacity="0.35"/>
  <circle cx="54" cy="54" r="2.5" fill="#38BDF8" opacity="0.35"/>

  <circle cx="-20" cy="-20" r="2" fill="#22D3EE" opacity="0.2"/>
  <circle cx="20" cy="-20" r="2" fill="#2563EB" opacity="0.2"/>
  <circle cx="-20" cy="20" r="2" fill="#2563EB" opacity="0.2"/>
  <circle cx="20" cy="20" r="2" fill="#22D3EE" opacity="0.2"/>

  <rect x="-5" y="-72" width="10" height="144" rx="5" fill="url(#gMain)"/>

  <path d="M5,-72 Q68,-72 68,-36 Q68,0 5,0"
        fill="none" stroke="url(#gMain)" stroke-width="10" stroke-linecap="round" stroke-linejoin="round"/>

  <path d="M-5,0 Q-68,0 -68,36 Q-68,72 -5,72"
        fill="none" stroke="url(#gMain)" stroke-width="10" stroke-linecap="round" stroke-linejoin="round"/>

  <circle cx="0" cy="-72" r="5" fill="#22D3EE"/>
  <circle cx="0" cy="72" r="5" fill="#2563EB"/>

  <circle cx="68" cy="-36" r="4.5" fill="#22D3EE" opacity="0.9"/>
  <circle cx="-68" cy="36" r="4.5" fill="#2563EB" opacity="0.9"/>

  <circle cx="0" cy="0" r="4" fill="#38BDF8" opacity="0.7"/>

</svg>
